<svg id="Layer_1" data-name="Layer 1" xmlns="http://www.w3.org/2000/svg" viewBox="0 0 106.37 106.36"><defs><style>.cls-1{fill:#141414;}</style></defs><title>magnifying-glass</title><path class="cls-1" d="M455.33,115.48l12.27,12.25c5.14,5.14,10.3,10.27,15.42,15.43,2.51,2.53,2.68,5.69.5,7.93s-5.47,2.15-8.08-.44q-13-13-26-26a17.62,17.62,0,0,1-1.36-1.75c-23,17.18-50.38,7.39-61.78-9.21a42.86,42.86,0,1,1,69,1.8ZM389.27,89.15A32.16,32.16,0,1,0,421.51,57,32.13,32.13,0,0,0,389.27,89.15Z" transform="translate(-378.67 -46.35)"/></svg>